<!DOCTYPE svg PUBLIC "-//W3C//DTD SVG 20010904//EN" "http://www.w3.org/TR/2001/REC-SVG-20010904/DTD/svg10.dtd">
<svg version="1.0" xmlns="http://www.w3.org/2000/svg" width="1506px" height="374px" viewBox="0 0 15060 3740" preserveAspectRatio="xMidYMid meet">
<g id="layer101" fill="#089fd1" stroke="none">
 <path d="M10863 3733 c4 -3 10 -3 14 0 3 4 0 7 -7 7 -7 0 -10 -3 -7 -7z"/>
 <path d="M440 3245 l0 -435 -175 0 -175 0 0 -940 0 -940 175 0 175 0 0 -430 0 -430 7090 0 7090 0 0 430 0 430 175 0 175 0 0 940 0 940 -175 0 -175 0 0 435 0 435 -7090 0 -7090 0 0 -435z"/>
 </g>
<g id="layer102" fill="#089fd1" stroke="none">
 <path d="M10863 3733 c4 -3 10 -3 14 0 3 4 0 7 -7 7 -7 0 -10 -3 -7 -7z"/>
 <path d="M3982 3673 c1952 -2 5144 -2 7095 0 1952 1 355 2 -3547 2 -3902 0 -5499 -1 -3548 -2z"/>
 <path d="M95 1870 c0 -520 1 -732 2 -472 2 259 2 685 0 945 -1 259 -2 47 -2 -473z"/>
 <path d="M14965 1870 c0 -520 1 -732 2 -472 2 259 2 685 0 945 -1 259 -2 47 -2 -473z"/>
 <path d="M3982 73 c1952 -2 5144 -2 7095 0 1952 1 355 2 -3547 2 -3902 0 -5499 -1 -3548 -2z"/>
 </g>
<g id="layer103" fill="#089fd1" stroke="none">
 <path d="M10863 3733 c4 -3 10 -3 14 0 3 4 0 7 -7 7 -7 0 -10 -3 -7 -7z"/>
 <path d="M3982 3673 c1952 -2 5144 -2 7095 0 1952 1 355 2 -3547 2 -3902 0 -5499 -1 -3548 -2z"/>
 <path d="M95 1870 c0 -520 1 -732 2 -472 2 259 2 685 0 945 -1 259 -2 47 -2 -473z"/>
 <path d="M3982 73 c1952 -2 5144 -2 7095 0 1952 1 355 2 -3547 2 -3902 0 -5499 -1 -3548 -2z"/>
 </g>
<g id="layer104" fill="#089fd1" stroke="none">
 <path d="M10863 3733 c4 -3 10 -3 14 0 3 4 0 7 -7 7 -7 0 -10 -3 -7 -7z"/>
 <path d="M95 1870 c0 -520 1 -732 2 -472 2 259 2 685 0 945 -1 259 -2 47 -2 -473z"/>
 </g>
<g id="layer105" fill="#089fd1" stroke="none">
 <path d="M95 1870 c0 -520 1 -732 2 -472 2 259 2 685 0 945 -1 259 -2 47 -2 -473z"/>
 </g>

</svg>
